<svg id="Layer_1" data-name="Layer 1" xmlns="http://www.w3.org/2000/svg" viewBox="0 0 114.21 114.21"><defs><style>.cls-1{fill:#1976d2;}.cls-2{fill:#fff;}</style></defs><title>bus</title><circle class="cls-1" cx="57.11" cy="57.11" r="57.11"/><path class="cls-2" d="M32.4,71.53a9.4,9.4,0,0,0,3.16,7v5.62a3.17,3.17,0,0,0,3.16,3.16h3.16A3.16,3.16,0,0,0,45,84.16V81H70.3v3.16a3.16,3.16,0,0,0,3.16,3.16h3.16a3.17,3.17,0,0,0,3.16-3.16V78.54a9.4,9.4,0,0,0,3.16-7V40c0-11.05-11.31-12.63-25.26-12.63S32.4,28.9,32.4,40V71.53Zm11.05,3.16A4.74,4.74,0,1,1,48.19,70,4.73,4.73,0,0,1,43.46,74.69Zm28.42,0A4.74,4.74,0,1,1,76.61,70,4.73,4.73,0,0,1,71.88,74.69Zm4.74-18.95H38.72V40H76.61V55.74Z" transform="translate(-0.56 -0.21)"/></svg>