<svg id="Layer_1" data-name="Layer 1" xmlns="http://www.w3.org/2000/svg" viewBox="0 0 114.21 114.21"><defs><style>.cls-1{fill:#009688;}.cls-2{fill:#fff;}</style></defs><title>car</title><circle class="cls-1" cx="57.11" cy="57.11" r="57.11"/><path class="cls-2" d="M246.46,32.06a5.39,5.39,0,0,0-5.09-3.62H202a5.39,5.39,0,0,0-5.09,3.62l-7.45,21.46V82.19A3.59,3.59,0,0,0,193,85.77h3.58a3.58,3.58,0,0,0,3.58-3.58V78.61h43v3.58a3.59,3.59,0,0,0,3.58,3.58h3.58a3.58,3.58,0,0,0,3.58-3.58V53.52ZM202,67.86a5.38,5.38,0,1,1,5.38-5.37A5.37,5.37,0,0,1,202,67.86Zm39.42,0a5.38,5.38,0,1,1,5.38-5.37A5.37,5.37,0,0,1,241.38,67.86ZM196.58,49.94L202,33.82h39.42l5.38,16.13H196.58Z" transform="translate(-164.56)"/></svg>