<svg id="Layer_1" data-name="Layer 1" xmlns="http://www.w3.org/2000/svg" viewBox="0 0 114 114"><defs><style>.cls-1{fill:#fff;}</style></defs><title>uber</title><rect width="114" height="114" rx="5.91" ry="5.91"/><path class="cls-1" d="M359,51.3V58c0,2.28-1.1,3.63-4.4,3.63s-4.42-1.35-4.42-3.63V53.28a2.08,2.08,0,0,0-2.07-2v1.29a0.77,0.77,0,0,1,.76.71v5.14c0,2.64,2.07,4.52,5.72,4.52s5.71-1.88,5.71-4.52V51.3H359Z" transform="translate(-332.77 -0.21)"/><path class="cls-1" d="M396.9,61.4V58.28a0.81,0.81,0,0,1,.79-0.79h5.69V56.18h-5.71a2.07,2.07,0,0,0-.77.17V52.58h9.28V51.27h-10.6V62.71h11V61.4H396.9Z" transform="translate(-332.77 -0.21)"/><path class="cls-1" d="M420.44,57a2.06,2.06,0,0,0-.78.15V52.51h7.17a2.25,2.25,0,0,1,0,4.5h-6.38Zm10,4.48a0.76,0.76,0,0,1-1-.09l-2.5-3.18a3.47,3.47,0,0,0-.11-6.95h-8.47V62.71h1.31V59a0.8,0.8,0,0,1,.79-0.76h4.82l3.13,4a2.07,2.07,0,0,0,2.86.3Z" transform="translate(-332.77 -0.21)"/><path class="cls-1" d="M380.54,61.48h-7.22V58.23a0.81,0.81,0,0,1,.79-0.8h6.43a2,2,0,0,1,0,4.05m-7.22-9h7.26a1.84,1.84,0,0,1,0,3.68H374a2.1,2.1,0,0,0-.69.16V52.51Zm9.11,4.29a3.07,3.07,0,0,0-1.86-5.52H372V62.71h8.53a3.26,3.26,0,0,0,1.89-5.91" transform="translate(-332.77 -0.21)"/></svg>